<svg id="SvgjsSvg1006" width="358.5" height="321.59375" xmlns="http://www.w3.org/2000/svg" version="1.1" xmlns:xlink="http://www.w3.org/1999/xlink" xmlns:svgjs="http://svgjs.com/svgjs"><defs id="SvgjsDefs1007"><marker id="SvgjsMarker1038" markerWidth="14" markerHeight="10" refX="10" refY="5" viewBox="0 0 14 10" orient="auto" markerUnits="userSpaceOnUse" stroke-dasharray="0,0"><path id="SvgjsPath1039" d="M0,0 L14,5 L0,10 L0,0" fill="#323232" stroke="#323232" stroke-width="1"></path></marker><marker id="SvgjsMarker1046" markerWidth="14" markerHeight="10" refX="10" refY="5" viewBox="0 0 14 10" orient="auto" markerUnits="userSpaceOnUse" stroke-dasharray="0,0"><path id="SvgjsPath1047" d="M0,0 L14,5 L0,10 L0,0" fill="#323232" stroke="#323232" stroke-width="1"></path></marker><marker id="SvgjsMarker1054" markerWidth="14" markerHeight="10" refX="10" refY="5" viewBox="0 0 14 10" orient="auto" markerUnits="userSpaceOnUse" stroke-dasharray="0,0"><path id="SvgjsPath1055" d="M0,0 L14,5 L0,10 L0,0" fill="#323232" stroke="#323232" stroke-width="1"></path></marker></defs><g id="SvgjsG1008" transform="translate(25,227)"><path id="SvgjsPath1009" d="M 0 4Q 0 0 4 0L 211 0Q 215 0 215 4L 215 36Q 215 40 211 40L 4 40Q 0 40 0 36Z" stroke="rgba(50,50,50,1)" stroke-width="2" fill-opacity="1" fill="#ffffff"></path><g id="SvgjsG1010"><text id="SvgjsText1011" font-family="微软雅黑" text-anchor="middle" font-size="13px" width="195px" fill="#323232" font-weight="400" align="middle" lineHeight="125%" anchor="middle" family="微软雅黑" size="13px" weight="400" font-style="" opacity="1" y="9.375" transform="rotate(0)"></text></g></g><g id="SvgjsG1012" transform="translate(36,232)"><path id="SvgjsPath1013" d="M 0 0L 75 0L 75 30L 0 30Z" stroke="rgba(50,50,50,1)" stroke-width="2" fill-opacity="1" fill="#ffffff"></path><g id="SvgjsG1014"><text id="SvgjsText1015" font-family="微软雅黑" text-anchor="middle" font-size="13px" width="55px" fill="#323232" font-weight="400" align="middle" lineHeight="125%" anchor="middle" family="微软雅黑" size="13px" weight="400" font-style="" opacity="1" y="4.375" transform="rotate(0)"><tspan id="SvgjsTspan1016" dy="16" x="37.5"><tspan id="SvgjsTspan1017" style="text-decoration:;">version</tspan></tspan></text></g></g><g id="SvgjsG1018" transform="translate(120.5,232)"><path id="SvgjsPath1019" d="M 0 0L 110.5 0L 110.5 30L 0 30Z" stroke="rgba(50,50,50,1)" stroke-width="2" fill-opacity="1" fill="#ffffff"></path><g id="SvgjsG1020"><text id="SvgjsText1021" font-family="微软雅黑" text-anchor="middle" font-size="13px" width="91px" fill="#323232" font-weight="400" align="middle" lineHeight="125%" anchor="middle" family="微软雅黑" size="13px" weight="400" font-style="" opacity="1" y="4.375" transform="rotate(0)"><tspan id="SvgjsTspan1022" dy="16" x="55.5"><tspan id="SvgjsTspan1023" style="text-decoration:;">pubkeyhash</tspan></tspan></text></g></g><g id="SvgjsG1024" transform="translate(248.5,232)"><path id="SvgjsPath1025" d="M 0 0L 85.5 0L 85.5 30L 0 30Z" stroke="rgba(50,50,50,1)" stroke-width="2" fill-opacity="1" fill="#ffffff"></path><g id="SvgjsG1026"><text id="SvgjsText1027" font-family="微软雅黑" text-anchor="middle" font-size="13px" width="66px" fill="#323232" font-weight="400" align="middle" lineHeight="125%" anchor="middle" family="微软雅黑" size="13px" weight="400" font-style="" opacity="1" y="4.375" transform="rotate(0)"><tspan id="SvgjsTspan1028" dy="16" x="43"><tspan id="SvgjsTspan1029" style="text-decoration:;">checksum</tspan></tspan></text></g></g><g id="SvgjsG1030" transform="translate(120.5,25)"><path id="SvgjsPath1031" d="M 0 0L 75 0L 75 30L 0 30Z" stroke="rgba(50,50,50,1)" stroke-width="2" fill-opacity="1" fill="#ffffff"></path><g id="SvgjsG1032"><text id="SvgjsText1033" font-family="微软雅黑" text-anchor="middle" font-size="13px" width="55px" fill="#323232" font-weight="400" align="middle" lineHeight="125%" anchor="middle" family="微软雅黑" size="13px" weight="400" font-style="" opacity="1" y="4.375" transform="rotate(0)"><tspan id="SvgjsTspan1034" dy="16" x="37.5"><tspan id="SvgjsTspan1035" style="text-decoration:;">pubkey</tspan></tspan></text></g></g><g id="SvgjsG1036"><path id="SvgjsPath1037" d="M158 56L158 90L158 90L158 125" stroke="#323232" stroke-width="2" fill="none" marker-end="url(#SvgjsMarker1038)"></path><rect id="SvgjsRect1040" width="44" height="16" x="136.00000000000003" y="82.50000000000001" fill="#ffffff"></rect><text id="SvgjsText1041" font-family="微软雅黑" text-anchor="middle" font-size="13px" width="44px" fill="#323232" font-weight="400" align="top" lineHeight="16px" anchor="middle" family="微软雅黑" size="13px" weight="400" font-style="" opacity="1" y="79.87500000000001" transform="rotate(0)"><tspan id="SvgjsTspan1042" dy="16" x="158.00000000000003"><tspan id="SvgjsTspan1043" style="text-decoration:;">sha256</tspan></tspan></text></g><g id="SvgjsG1044"><path id="SvgjsPath1045" d="M159 144L159 181L159 181L159 218" stroke="#323232" stroke-width="2" fill="none" marker-end="url(#SvgjsMarker1046)"></path><rect id="SvgjsRect1048" width="67" height="16" x="125.5" y="173" fill="#ffffff"></rect><text id="SvgjsText1049" font-family="微软雅黑" text-anchor="middle" font-size="13px" width="67px" fill="#323232" font-weight="400" align="top" lineHeight="16px" anchor="middle" family="微软雅黑" size="13px" weight="400" font-style="" opacity="1" y="170.375" transform="rotate(0)"><tspan id="SvgjsTspan1050" dy="16" x="159"><tspan id="SvgjsTspan1051" style="text-decoration:;">ripemd160</tspan></tspan></text></g><g id="SvgjsG1052"><path id="SvgjsPath1053" d="M147 268L147 297L291.25 297L291.25 265.6" stroke="#323232" stroke-width="2" fill="none" marker-end="url(#SvgjsMarker1054)"></path></g></svg>